<?xml version="1.0" encoding="UTF-8"?>
<svg id="_레이어_2" data-name="레이어 2" xmlns="http://www.w3.org/2000/svg" viewBox="0 0 98.79 80.87">
  <defs>
    <style>
      .cls-1 {
        stroke: #2b469b;
      }

      .cls-1, .cls-2 {
        fill: #fff;
        stroke-linecap: round;
        stroke-linejoin: round;
        stroke-width: 6px;
      }

      .cls-2 {
        stroke: #acbbdd;
      }
    </style>
  </defs>
  <g id="image">
    <path class="cls-2" d="M94.27,53.73l-4.68-3.82c.14-1.06.23-2.13.23-3.23s-.08-2.17-.23-3.23l4.68-3.82c1.57-1.28,1.97-3.51.96-5.26l-3.79-6.57c-1.01-1.75-3.15-2.51-5.04-1.8l-5.59,2.12c-1.71-1.35-3.6-2.48-5.64-3.32l-.97-5.85c-.33-1.99-2.05-3.45-4.07-3.45h-7.61c-2.02,0-3.74,1.46-4.07,3.45l-.95,5.68c-2.14.84-4.12,1.98-5.9,3.37l-5.35-2.01c-1.89-.71-4.01.05-5.02,1.8l-3.81,6.59c-1.01,1.75-.61,3.97.95,5.25l4.33,3.57c-.17,1.14-.26,2.3-.26,3.48s.09,2.34.26,3.48l-4.33,3.56c-1.56,1.28-1.96,3.5-.95,5.25l3.81,6.59c1.01,1.75,3.13,2.51,5.02,1.8l5.35-2c1.79,1.4,3.79,2.55,5.95,3.39l.92,5.66c.33,2,2.05,3.46,4.07,3.46h7.59c2.02,0,3.75-1.47,4.07-3.46l.95-5.82c2.05-.85,3.96-1.98,5.68-3.34l5.58,2.12c1.89.72,4.02-.04,5.04-1.8l3.79-6.57c1.01-1.75.6-3.98-.96-5.26Z"/>
    <path class="cls-1" d="M65.77,44.81l-5.12-4.18c.16-1.16.25-2.33.25-3.53s-.09-2.38-.25-3.53l5.12-4.18c1.71-1.4,2.16-3.84,1.05-5.75l-4.15-7.18c-1.11-1.92-3.44-2.75-5.51-1.96l-6.11,2.32c-1.87-1.48-3.94-2.71-6.17-3.64l-1.07-6.4c-.36-2.18-2.25-3.77-4.45-3.77h-8.32c-2.21,0-4.09,1.6-4.45,3.77l-1.03,6.22c-2.34.92-4.51,2.16-6.46,3.68l-5.85-2.19c-2.07-.77-4.39.06-5.49,1.97l-4.16,7.21c-1.1,1.91-.66,4.34,1.04,5.74l4.74,3.9c-.18,1.24-.28,2.51-.28,3.81s.1,2.56.28,3.8l-4.74,3.9c-1.7,1.4-2.14,3.83-1.04,5.74l4.16,7.21c1.1,1.91,3.43,2.74,5.49,1.97l5.85-2.19c1.96,1.53,4.15,2.78,6.5,3.7l1.01,6.18c.36,2.18,2.24,3.79,4.45,3.79h8.3c2.21,0,4.1-1.6,4.45-3.79l1.03-6.37c2.25-.93,4.33-2.16,6.21-3.65l6.1,2.31c2.07.78,4.4-.05,5.51-1.96l4.15-7.18c1.11-1.92.66-4.35-1.05-5.75Z"/>
    <path class="cls-1" d="M26.14,37.1c0-4.89,3.98-8.86,8.86-8.86s8.86,3.98,8.86,8.86-3.98,8.86-8.86,8.86-8.86-3.98-8.86-8.86Z"/>
  </g>
</svg>