<?xml version="1.0" encoding="UTF-8"?>
<svg id="_레이어_2" data-name="레이어 2" xmlns="http://www.w3.org/2000/svg" viewBox="0 0 79.58 83.89">
  <defs>
    <style>
      .cls-1 {
        fill: #fff;
        stroke: #2b469b;
        stroke-linecap: round;
        stroke-linejoin: round;
        stroke-width: 6px;
      }
    </style>
  </defs>
  <g id="image">
    <path class="cls-1" d="M74.69,50.75l-5.84-4.77c.18-1.32.28-2.66.28-4.03s-.1-2.71-.28-4.03l5.85-4.78c1.96-1.6,2.47-4.38,1.2-6.57l-4.74-8.2c-1.26-2.19-3.93-3.14-6.29-2.24l-6.98,2.65c-2.13-1.69-4.49-3.09-7.04-4.15l-1.22-7.31c-.41-2.49-2.56-4.31-5.08-4.31h-9.51c-2.52,0-4.67,1.82-5.08,4.31l-1.18,7.1c-2.67,1.05-5.15,2.47-7.37,4.21l-6.69-2.51c-2.36-.88-5.01.07-6.27,2.25l-4.75,8.23c-1.26,2.18-.76,4.96,1.19,6.56l5.41,4.45c-.21,1.42-.32,2.87-.32,4.35s.11,2.92.32,4.34l-5.41,4.45c-1.95,1.6-2.45,4.37-1.19,6.56l4.75,8.23c1.26,2.18,3.91,3.13,6.27,2.25l6.68-2.5c2.24,1.75,4.74,3.18,7.43,4.23l1.15,7.06c.41,2.49,2.56,4.33,5.09,4.33h9.47c2.53,0,4.68-1.83,5.09-4.33l1.18-7.27c2.57-1.06,4.95-2.47,7.09-4.17l6.97,2.64c2.36.9,5.03-.05,6.29-2.24l4.74-8.2c1.26-2.19.75-4.97-1.2-6.57Z"/>
    <path class="cls-1" d="M28.6,41.94c0-6.04,4.91-10.95,10.95-10.95s10.95,4.91,10.95,10.95-4.91,10.95-10.95,10.95-10.95-4.91-10.95-10.95Z"/>
  </g>
</svg>